<svg width="512" height="512" viewBox="0 0 512 512" fill="none" xmlns="http://www.w3.org/2000/svg">
  <circle cx="266" cy="258" r="190" fill="#EFF6FF"/>
  <path d="M116 210 256 110l140 100v150c0 22-18 40-40 40H156c-22 0-40-18-40-40V210Z" fill="#DBEAFE" stroke="#3B82F6" stroke-width="8" stroke-linejoin="round"/>
  <path d="M155 172h202c14 0 25 11 25 25v132H130V197c0-14 11-25 25-25Z" fill="white" stroke="#60A5FA" stroke-width="8"/>
  <path d="M185 224h142M185 260h142M185 296h96" stroke="#60A5FA" stroke-width="8" stroke-linecap="round"/>
  <path d="M116 220 256 322l140-102" stroke="#3B82F6" stroke-width="8" stroke-linecap="round" stroke-linejoin="round"/>
  <path d="M121 381 230 286M391 381 282 286" stroke="#93C5FD" stroke-width="8" stroke-linecap="round"/>
  <circle cx="371" cy="370" r="52" fill="#2563EB" stroke="white" stroke-width="8"/>
  <rect x="348" y="367" width="46" height="34" rx="7" stroke="white" stroke-width="8"/>
  <path d="M358 367v-13c0-15 11-26 26-26s26 11 26 26v13" stroke="white" stroke-width="8" stroke-linecap="round"/>
  <circle cx="381" cy="122" r="28" fill="#5CC87A"/>
  <path d="m368 122 9 9 18-20" stroke="white" stroke-width="7" stroke-linecap="round" stroke-linejoin="round"/>
  <path d="M420 145c36 35 44 79 19 124" stroke="#93C5FD" stroke-width="5" stroke-linecap="round" stroke-dasharray="8 12"/>
  <path d="M72 270h10M77 265v10M82 152h10M87 147v10M427 318h10M432 313v10" stroke="#60A5FA" stroke-width="5" stroke-linecap="round"/>
</svg>
